Coordinates
version=1
nRows=15
nColumns=34
inDegrees=yes

Units are S.I. units (second, meters, Newtons, ...)
If the header above contains a line with 'inDegrees', this indicates whether rotational values are in degrees (yes) or radians (no).

endheader
time	pelvis_tilt	pelvis_list	pelvis_rotation	pelvis_tx	pelvis_ty	pelvis_tz	hip_flexion_r	hip_adduction_r	hip_rotation_r	knee_angle_r	ankle_angle_r	subtalar_angle_r	mtp_angle_r	hip_flexion_l	hip_adduction_l	hip_rotation_l	knee_angle_l	ankle_angle_l	subtalar_angle_l	mtp_angle_l	lumbar_extension	lumbar_bending	lumbar_rotation	arm_flex_r	arm_add_r	arm_rot_r	elbow_flex_r	pro_sup_r	arm_flex_l	arm_add_l	arm_rot_l	elbow_flex_l	pro_sup_l
      3.35000000	     -8.56125827	     -5.30225445	      1.89210476	      1.08604368	      0.95179989	      0.08392671	     56.97438968	    -11.04798740	    -14.86417602	     11.78246917	    -20.81078037	    -11.00662086	      0.00000000	     51.73583201	     -1.97832124	     -7.50943284	     65.98612111	     22.73109506	    -22.11978736	      0.00000000	     -9.92027528	     -7.61783972	     -8.13057960	     72.18645176	     -0.15006061	     39.92791304	     49.36847125	     83.26008996	     84.34157481	    -13.77849069	     63.83637555	     46.56814542	     63.40877404
      3.36666670	     -9.21965213	     -5.73927317	      2.11868096	      1.08442245	      0.95353941	      0.08575499	     57.81425683	    -11.46699319	    -14.31303411	     12.88469869	    -20.33594092	    -11.40455808	      0.00000000	     52.40490435	     -2.23662726	     -7.22827429	     65.93114517	     23.42005296	    -21.75409441	      0.00000000	     -9.35786378	     -7.68376643	     -8.43002067	     71.41529958	     -0.20236513	     39.67167814	     50.24628680	     83.10944810	     83.98974167	    -13.98149067	     63.78659829	     47.24169513	     62.94964264
      3.38333330	     -9.18093981	     -5.93490404	      2.35292704	      1.08271946	      0.95628479	      0.08703397	     57.81005858	    -11.98916894	    -14.15475278	     13.45627221	    -20.21410189	    -11.55082514	      0.00000000	     52.22713394	     -2.27758811	     -6.97581368	     65.27028726	     23.18258253	    -21.86919654	      0.00000000	     -9.70145200	     -7.82811551	     -8.40889874	     71.36151485	     -0.02954631	     39.28348663	     50.17638200	     83.01929140	     83.83394342	    -13.66323687	     63.75207508	     47.41749828	     62.78050643
      3.40000000	     -9.15347485	     -5.93468026	      2.43228033	      1.08316020	      0.95750610	      0.09089943	     57.83353931	    -12.35901629	    -13.75413027	     13.80076644	    -20.35901478	    -11.84527692	      0.00000000	     51.91900560	     -2.24777015	     -6.63523150	     64.62003204	     22.67457947	    -22.53911812	      0.00000000	    -10.10409558	     -8.31546150	     -7.77860384	     70.97457707	      0.18887810	     37.36089823	     49.96755728	     82.63513855	     83.77311448	    -12.94672253	     63.62523818	     47.50598317	     62.12583766
      3.41666670	     -9.17733500	     -6.14490940	      2.61583551	      1.08281051	      0.95570036	      0.09222522	     58.06112595	    -12.78885692	    -13.74325233	     14.41295724	    -20.37443252	    -11.96804219	      0.00000000	     52.15689443	     -2.32766412	     -6.27945508	     64.59784382	     22.63605991	    -22.79571353	      0.00000000	    -10.42364943	     -8.42291184	     -7.40181764	     71.23868314	      0.16738936	     37.05503216	     49.65936935	     82.59254929	     83.95588751	    -12.32319563	     63.68623044	     47.56922884	     62.03578899
      3.43333330	     -9.10060606	     -6.15843832	      2.71696895	      1.08461632	      0.95469619	      0.09501234	     58.12037349	    -13.13454091	    -13.42018874	     14.59808111	    -20.38481461	    -11.92205687	      0.00000000	     52.13206336	     -2.25697166	     -5.81731540	     64.56459420	     22.33341492	    -23.57746822	      0.00000000	    -10.49993966	     -8.93105963	     -6.87587025	     70.81537174	      0.39894018	     35.54955160	     48.77487081	     82.39597717	     84.22430743	    -10.77278765	     64.14578062	     45.42336219	     61.52071373
      3.45000000	     -9.39794998	     -6.39249790	      2.83000641	      1.07941821	      0.95418827	      0.09890372	     58.38722133	    -13.35987152	    -13.52583059	     14.69126290	    -19.70639161	    -10.96542576	      0.00000000	     52.85998565	     -2.27931065	     -5.16923136	     64.83897910	     21.54064026	    -24.61495891	      0.00000000	    -10.46881914	     -9.09097389	     -6.39683554	     70.48026264	      0.17709493	     34.64086786	     49.39549514	     82.40784820	     84.78908379	     -9.60393971	     64.74047172	     44.03701080	     60.91898608
      3.46666670	     -9.28438308	     -6.61445965	      2.62756254	      1.08221401	      0.95449278	      0.09739183	     58.48246833	    -13.32094068	    -13.25342463	     15.15005943	    -19.53954998	    -11.02296842	      0.00000000	     53.09061395	     -2.28141466	     -4.45597559	     65.22569340	     21.65768367	    -24.68151243	      0.00000000	    -10.79034313	     -8.88752081	     -6.07150974	     70.60829457	      0.40676935	     34.59050251	     49.42008753	     82.42204741	     85.05712943	     -9.36320763	     64.69487407	     43.63544947	     60.82873211
      3.48333330	     -9.38003067	     -6.89934392	      2.55474062	      1.07538220	      0.95355321	      0.10079859	     58.63477148	    -13.24812984	    -13.10908577	     15.50740694	    -19.31271403	    -11.31214040	      0.00000000	     53.66648589	     -2.13625095	     -3.46629891	     65.67178443	     21.41890145	    -25.00354739	      0.00000000	    -10.98294730	     -8.68987560	     -5.48624355	     70.75000655	      0.28111209	     34.58842453	     49.32207291	     82.53449682	     85.58406432	     -7.98684356	     64.54753722	     41.13702051	     60.33094511
      3.50000000	     -9.33187811	     -6.94006368	      2.06765073	      1.07572085	      0.95096550	      0.10040533	     59.09338215	    -13.02359696	    -13.07136766	     16.04813586	    -19.38006427	    -11.39966983	      0.00000000	     54.18408167	     -1.80875146	     -2.54673530	     66.35491447	     21.81615835	    -25.17582514	      0.00000000	    -11.27994431	     -8.50668239	     -4.57604695	     71.15163085	      0.23891657	     34.49544499	     49.36598654	     82.52967060	     85.78472250	     -7.81761950	     64.50379480	     41.17554011	     60.27255506
      3.51666670	     -9.66869375	     -7.53116539	      1.68417414	      1.07652221	      0.94851157	      0.10083235	     59.79976589	    -12.40871621	    -13.08452052	     16.83615622	    -19.89320685	    -12.79613465	      0.00000000	     55.34426201	     -1.70920775	     -1.13727222	     67.41250134	     21.20252112	    -26.73229606	      0.00000000	    -10.90809602	     -7.62475114	     -3.32101570	     71.02219092	     -0.18542535	     34.40971501	     49.71749130	     82.48277067	     85.48811260	     -7.03853138	     63.81073052	     40.43661776	     59.85678873
      3.53333330	     -9.53375003	     -7.54032128	      1.27332750	      1.07115662	      0.94695502	      0.10455719	     60.67004784	    -11.84989137	    -12.47250302	     18.41142464	    -21.06948689	    -15.94406266	      0.00000000	     55.55618771	     -1.22771942	     -0.07659318	     67.79227796	     20.18623067	    -28.56317542	      0.00000000	    -11.29743347	     -7.38967825	     -2.39262977	     71.38533137	     -0.21536998	     34.09614102	     49.68904349	     82.35240190	     85.61418945	     -6.67870741	     63.18236953	     40.01802929	     59.53730849
      3.55000000	     -9.46465359	     -7.56679474	      1.21365053	      1.06784689	      0.94760935	      0.10347722	     61.35104565	    -11.42270347	    -12.15354831	     19.43536690	    -22.79407963	    -18.76813497	      0.00000000	     55.88439434	     -0.32775570	      1.21832398	     67.89339031	     18.53235608	    -30.77374295	      0.00000000	    -11.68749542	     -6.97996497	     -1.55002915	     71.27985802	     -0.26361882	     33.25781546	     49.83433473	     82.11981956	     85.48912926	     -6.44639065	     62.27639328	     40.06880594	     59.22089384
      3.56666670	     -9.25685730	     -7.40890003	      1.18999826	      1.07228026	      0.94626331	      0.09986981	     61.31369822	    -11.15864612	    -12.28739537	     19.86418427	    -23.81008876	    -20.16611716	      0.00000000	     55.53912763	      0.83243728	      2.35770709	     67.53550770	     16.65916376	    -33.59069650	      0.00000000	    -12.14684452	     -6.63080680	     -0.62523531	     71.26385205	     -0.13313325	     32.22999740	     49.26747622	     81.84590392	     85.22607715	     -5.79757087	     61.15283025	     39.73225336	     58.90227320
      3.58333330	     -9.39548822	     -6.98267240	      0.93481137	      1.07071907	      0.94363541	      0.09935761	     61.65591735	    -10.90464314	    -12.57610797	     19.84804150	    -23.77110828	    -20.60673769	      0.00000000	     55.48628796	      2.15975910	      3.27846226	     67.46327643	     17.07683791	    -34.49195818	      0.00000000	    -12.32015203	     -6.48458837	      0.49485513	     71.29378626	     -0.42578760	     31.94011523	     49.01823680	     81.78088822	     84.98265962	     -5.47707257	     60.95687094	     40.08639513	     58.86429418
